<svg xmlns="http://www.w3.org/2000/svg" xmlns:xlink="http://www.w3.org/1999/xlink" width="62px" height="36px" viewBox="0 0 62 36" version="1.1">
    <!-- Generator: Sketch 52.5 (67469) - http://www.bohemiancoding.com/sketch -->
    <title>down</title>
    <desc>Created with Sketch.</desc>
    <defs>
        <path d="M31.6306193,32.7764616 C31.2775116,33.0637606 30.7607774,33.0808098 30.3861054,32.7893982 L3.38610536,11.7893982 C2.95015816,11.4503281 2.87162371,10.8220525 3.21069375,10.3861054 C3.54976379,9.95015816 4.17803939,9.87162371 4.61398658,10.2106938 L31.000046,30.7331844 L57.3861054,10.2106938 C57.8220525,9.87162371 58.4503281,9.95015816 58.7893982,10.3861054 C59.1284682,10.8220525 59.0499338,11.4503281 58.6139866,11.7893982 L31.6306193,32.7764616 Z" id="path-1"/>
        <filter x="-10.7%" y="-26.1%" width="121.4%" height="152.2%" filterUnits="objectBoundingBox" id="filter-2">
            <feOffset dx="0" dy="0" in="SourceAlpha" result="shadowOffsetOuter1"/>
            <feGaussianBlur stdDeviation="2" in="shadowOffsetOuter1" result="shadowBlurOuter1"/>
            <feColorMatrix values="0 0 0 0 0   0 0 0 0 0   0 0 0 0 0  0 0 0 0.8 0" type="matrix" in="shadowBlurOuter1"/>
        </filter>
        <path d="M31.6330103,22.7745101 C31.2798474,23.063682 30.761624,23.0814682 30.3861054,22.7893982 L7.38610536,4.78939819 C6.95015816,4.45032815 6.87162371,3.82205255 7.21069375,3.38610536 C7.54976379,2.95015816 8.17803939,2.87162371 8.61398658,3.21069375 L31.000046,20.7302185 L53.3861054,3.21069375 C53.8220525,2.87162371 54.4503281,2.95015816 54.7893982,3.38610536 C55.1284682,3.82205255 55.0499338,4.45032815 54.6139866,4.78939819 L31.6330103,22.7745101 Z" id="path-3"/>
        <filter x="-12.5%" y="-30.0%" width="125.0%" height="160.0%" filterUnits="objectBoundingBox" id="filter-4">
            <feOffset dx="0" dy="0" in="SourceAlpha" result="shadowOffsetOuter1"/>
            <feGaussianBlur stdDeviation="2" in="shadowOffsetOuter1" result="shadowBlurOuter1"/>
            <feColorMatrix values="0 0 0 0 0   0 0 0 0 0   0 0 0 0 0  0 0 0 0.8 0" type="matrix" in="shadowBlurOuter1"/>
        </filter>
    </defs>
    <g id="PC3" stroke="none" stroke-width="1" fill="none" fill-rule="evenodd">
        <g id="Contact" transform="translate(-846.000000, -853.000000)" fill-rule="nonzero">
            <g id="Group" transform="translate(846.000000, 853.000000)">
                <g id="Combined-Shape">
                    <use fill="black" fill-opacity="1" filter="url(#filter-2)" xlink:href="#path-1"/>
                    <use fill="#FFFFFF" xlink:href="#path-1"/>
                </g>
                <g id="Combined-Shape">
                    <use fill="black" fill-opacity="1" filter="url(#filter-4)" xlink:href="#path-3"/>
                    <use fill="#FFFFFF" xlink:href="#path-3"/>
                </g>
            </g>
        </g>
    </g>
</svg>